<svg xmlns="http://www.w3.org/2000/svg" viewBox="0 0 24 24">
    <path fill="#e3f2fd" d="M16,4H8C5.791,4,4,5.791,4,8v0h16v0C20,5.791,18.209,4,16,4z"
        opacity=".0" />
    <path fill="#2196f3"
        d="M7 20H4v2c0 .552.448 1 1 1h1c.552 0 1-.448 1-1V20zM17 20h3v2c0 .552-.448 1-1 1h-1c-.552 0-1-.448-1-1V20z" />
    <path fill="#2196f3"
        d="M13,3h-2C7.375,3,3,3.237,3,7v11c0,1.657,1.343,3,3,3h12c1.657,0,3-1.343,3-3V7C21,3.237,16.625,3,13,3z M19,18c0,0.551-0.449,1-1,1H6c-0.551,0-1-0.449-1-1V7c0-1.235,1.004-2,6-2h2c4.996,0,6,0.765,6,2V18z" />
    <path fill="#2196f3"
        d="M7.5 15A1.5 1.5 0 1 0 7.5 18 1.5 1.5 0 1 0 7.5 15zM16.5 15A1.5 1.5 0 1 0 16.5 18 1.5 1.5 0 1 0 16.5 15zM4 12H20V14H4zM4 7H20V9H4z" />
    <path fill="#e3f2fd" d="M18,20H6c-1.105,0-2-0.895-2-2v-5h16v5C20,19.105,19.105,20,18,20z"
        opacity=".0" />
</svg>